<svg xmlns="http://www.w3.org/2000/svg" viewBox="0 0 512 512" width="512" height="512">
  <defs>
    <linearGradient id="bgGrad" x1="0%" y1="0%" x2="100%" y2="100%">
      <stop offset="0%" stop-color="#0a0a0f"/>
      <stop offset="50%" stop-color="#121124"/>
      <stop offset="100%" stop-color="#07070a"/>
    </linearGradient>
    <linearGradient id="brandGrad" x1="0%" y1="0%" x2="100%" y2="100%">
      <stop offset="0%" stop-color="#818cf8"/>
      <stop offset="50%" stop-color="#6366f1"/>
      <stop offset="100%" stop-color="#4f46e5"/>
    </linearGradient>
    <linearGradient id="glowGrad" x1="0%" y1="0%" x2="100%" y2="100%">
      <stop offset="0%" stop-color="#c7d2fe" stop-opacity="0.9"/>
      <stop offset="100%" stop-color="#818cf8" stop-opacity="0.3"/>
    </linearGradient>
    <filter id="shadow" x="-20%" y="-20%" width="140%" height="140%">
      <feDropShadow dx="0" dy="12" stdDeviation="16" flood-color="#4f46e5" flood-opacity="0.45"/>
    </filter>
  </defs>

  <!-- Background rounded rect -->
  <rect width="512" height="512" rx="112" fill="url(#bgGrad)"/>
  <rect width="512" height="512" rx="112" fill="none" stroke="url(#glowGrad)" stroke-width="3" opacity="0.3"/>

  <!-- Glowing Accent Circle in background -->
  <circle cx="256" cy="256" r="160" fill="#6366f1" opacity="0.12" filter="blur(24px)"/>

  <!-- Modern Studio Badge / Emblem -->
  <g filter="url(#shadow)">
    <!-- Outer Card Frame with golden/indigo bevel -->
    <rect x="116" y="116" width="280" height="280" rx="64" fill="url(#brandGrad)"/>

    <!-- Inner dark viewport surface -->
    <rect x="132" y="132" width="248" height="248" rx="50" fill="#0d0d16" fill-opacity="0.92"/>

    <!-- Stylized "AP" monogram & creative crosshair -->
    <path d="M196 332 L256 180 L316 332" fill="none" stroke="url(#brandGrad)" stroke-width="26" stroke-linecap="round" stroke-linejoin="round"/>
    <path d="M216 284 L296 284" fill="none" stroke="url(#brandGrad)" stroke-width="24" stroke-linecap="round"/>

    <!-- Sparkling studio star in top corner -->
    <path d="M336 176 L342 192 L358 198 L342 204 L336 220 L330 204 L314 198 L330 192 Z" fill="#ffffff"/>
    <circle cx="256" cy="226" r="10" fill="#ffffff"/>
  </g>
</svg>
